<?xml version="1.0" encoding="UTF-8" standalone="no"?>
<!-- Created with Inkscape (http://www.inkscape.org/) -->

<svg
   width="97.450081mm"
   height="67.188507mm"
   viewBox="0 0 97.450081 67.188507"
   version="1.1"
   id="svg5"
   inkscape:version="1.1.2 (0a00cf5339, 2022-02-04)"
   sodipodi:docname="pareto.update.svg"
   inkscape:export-filename="/home/crutcher/git/crutcher.github.io-source/source/Tapestry/optimization/pareto.update.png"
   inkscape:export-xdpi="96"
   inkscape:export-ydpi="96"
   xmlns:inkscape="http://www.inkscape.org/namespaces/inkscape"
   xmlns:sodipodi="http://sodipodi.sourceforge.net/DTD/sodipodi-0.dtd"
   xmlns="http://www.w3.org/2000/svg"
   xmlns:svg="http://www.w3.org/2000/svg">
  <sodipodi:namedview
     id="namedview7"
     pagecolor="#505050"
     bordercolor="#ffffff"
     borderopacity="1"
     inkscape:pageshadow="0"
     inkscape:pageopacity="0"
     inkscape:pagecheckerboard="1"
     inkscape:document-units="mm"
     showgrid="false"
     inkscape:zoom="0.77771465"
     inkscape:cx="-90.007305"
     inkscape:cy="277.09392"
     inkscape:window-width="1488"
     inkscape:window-height="1082"
     inkscape:window-x="2486"
     inkscape:window-y="633"
     inkscape:window-maximized="0"
     inkscape:current-layer="layer1"
     fit-margin-top="0"
     fit-margin-left="0"
     fit-margin-right="0"
     fit-margin-bottom="0" />
  <defs
     id="defs2" />
  <g
     inkscape:label="Layer 1"
     inkscape:groupmode="layer"
     id="layer1"
     transform="translate(-26.439012,-75.085735)">
    <rect
       style="fill:#7cf5ef;fill-opacity:1;stroke:#002a64;stroke-width:1.41111;stroke-linecap:round;stroke-miterlimit:4;stroke-dasharray:none;stroke-opacity:1"
       id="rect31"
       width="96.038971"
       height="65.777397"
       x="27.144567"
       y="75.79129" />
    <path
       style="fill:#b9b9b9;fill-opacity:1;stroke:#323232;stroke-width:0.705556;stroke-linecap:round;stroke-miterlimit:4;stroke-dasharray:none;stroke-opacity:1"
       id="path3072-7-1"
       sodipodi:type="arc"
       sodipodi:cx="47.126308"
       sodipodi:cy="118.05308"
       sodipodi:rx="4.2287188"
       sodipodi:ry="4.2287188"
       sodipodi:start="5.287667"
       sodipodi:end="5.2866721"
       sodipodi:open="true"
       sodipodi:arc-type="arc"
       d="m 49.427019,114.50501 a 4.2287188,4.2287188 0 0 1 1.24793,5.8479 4.2287188,4.2287188 0 0 1 -5.847586,1.24938 4.2287188,4.2287188 0 0 1 -1.250839,-5.84728 4.2287188,4.2287188 0 0 1 5.846964,-1.25229" />
    <path
       style="fill:#b9b9b9;fill-opacity:1;stroke:#323232;stroke-width:0.705556;stroke-linecap:round;stroke-miterlimit:4;stroke-dasharray:none;stroke-opacity:1"
       id="path3072-7-1-8"
       sodipodi:type="arc"
       sodipodi:cx="69.129906"
       sodipodi:cy="126.69305"
       sodipodi:rx="4.2287188"
       sodipodi:ry="4.2287188"
       sodipodi:start="5.287667"
       sodipodi:end="5.2866721"
       sodipodi:open="true"
       sodipodi:arc-type="arc"
       d="m 71.430617,123.14498 a 4.2287188,4.2287188 0 0 1 1.24793,5.84789 4.2287188,4.2287188 0 0 1 -5.847587,1.24939 4.2287188,4.2287188 0 0 1 -1.250839,-5.84728 4.2287188,4.2287188 0 0 1 5.846964,-1.25229" />
    <path
       style="fill:#b9b9b9;fill-opacity:1;stroke:#323232;stroke-width:0.705556;stroke-linecap:round;stroke-miterlimit:4;stroke-dasharray:none;stroke-opacity:1"
       id="path3072-7-1-7"
       sodipodi:type="arc"
       sodipodi:cx="39.026978"
       sodipodi:cy="132.00887"
       sodipodi:rx="4.2287188"
       sodipodi:ry="4.2287188"
       sodipodi:start="5.287667"
       sodipodi:end="5.2866721"
       sodipodi:open="true"
       sodipodi:arc-type="arc"
       d="m 41.327688,128.4608 a 4.2287188,4.2287188 0 0 1 1.24793,5.84789 4.2287188,4.2287188 0 0 1 -5.847586,1.24939 4.2287188,4.2287188 0 0 1 -1.250839,-5.84728 4.2287188,4.2287188 0 0 1 5.846964,-1.25229" />
    <path
       style="fill:none;fill-opacity:1;stroke:#717171;stroke-width:0.964;stroke-linecap:round;stroke-miterlimit:4;stroke-dasharray:2.892,2.892;stroke-dashoffset:0;stroke-opacity:1"
       d="m 34.852777,103.29197 c 55.550914,-0.33487 63.093797,16.11676 70.051243,32.63689"
       id="path3328"
       sodipodi:nodetypes="cc" />
    <path
       style="fill:none;fill-opacity:1;stroke:#00642b;stroke-width:1.76389;stroke-linecap:round;stroke-miterlimit:4;stroke-dasharray:3.52778, 7.05556;stroke-dashoffset:0;stroke-opacity:1"
       d="m 31.600348,88.208449 c 18.777766,-0.103544 40.242394,0.277081 50.006812,6.595097 19.12824,12.376824 19.04403,37.890114 19.04403,37.890114"
       id="path3328-6"
       sodipodi:nodetypes="csc" />
    <path
       style="fill:#b07cf5;fill-opacity:1;stroke:#3b0064;stroke-width:0.705556;stroke-linecap:round;stroke-miterlimit:4;stroke-dasharray:none;stroke-opacity:1"
       id="path3072-62"
       sodipodi:type="arc"
       sodipodi:cx="83.47596"
       sodipodi:cy="93.56385"
       sodipodi:rx="4.2287188"
       sodipodi:ry="4.2287188"
       sodipodi:start="5.287667"
       sodipodi:end="5.2866721"
       sodipodi:open="true"
       sodipodi:arc-type="arc"
       d="m 85.776671,90.015782 a 4.2287188,4.2287188 0 0 1 1.24793,5.847897 4.2287188,4.2287188 0 0 1 -5.847587,1.249384 4.2287188,4.2287188 0 0 1 -1.250839,-5.847275 4.2287188,4.2287188 0 0 1 5.846965,-1.252294" />
    <path
       style="fill:#b07cf5;fill-opacity:1;stroke:#3b0064;stroke-width:0.705556;stroke-linecap:round;stroke-miterlimit:4;stroke-dasharray:none;stroke-opacity:1"
       id="path3072-6"
       sodipodi:type="arc"
       sodipodi:cx="97.734116"
       sodipodi:cy="118.96678"
       sodipodi:rx="4.2287188"
       sodipodi:ry="4.2287188"
       sodipodi:start="5.287667"
       sodipodi:end="5.2866721"
       sodipodi:open="true"
       sodipodi:arc-type="arc"
       d="m 100.03483,115.41871 a 4.2287188,4.2287188 0 0 1 1.24793,5.8479 4.2287188,4.2287188 0 0 1 -5.84759,1.24938 4.2287188,4.2287188 0 0 1 -1.250839,-5.84727 4.2287188,4.2287188 0 0 1 5.846969,-1.25229" />
    <g
       id="path4499"
       transform="translate(13.851386,6.8033419)">
      <path
         style="color:#000000;fill:#7cc3f5;stroke-width:2.5;stroke-linecap:round;-inkscape-stroke:none"
         d="M 60.309212,108.99683 74.517969,96.917628"
         id="path4868" />
      <path
         style="color:#000000;fill:#b0003a;fill-opacity:1;stroke:#61000e;stroke-width:0.7;stroke-linecap:round;stroke-miterlimit:4;stroke-dasharray:none;stroke-opacity:1"
         d="m 74.619141,95.671875 c -0.330223,-0.02682 -0.657585,0.07855 -0.910157,0.292969 l -7.078902,2.200111 2.560094,1.641651 L 59.5,108.04492 c -0.525749,0.44717 -0.589576,1.23583 -0.142578,1.76172 0.447168,0.52575 1.235824,0.58958 1.761719,0.14258 l 9.861718,-8.53627 1.902637,2.62392 2.444629,-6.167729 c 0.525749,-0.447169 0.589576,-1.235825 0.142578,-1.761719 -0.214886,-0.252336 -0.521191,-0.409001 -0.851562,-0.435547 z"
         id="path4870"
         sodipodi:nodetypes="cccccccccccc" />
    </g>
    <text
       xml:space="preserve"
       style="font-style:normal;font-variant:normal;font-weight:bold;font-stretch:normal;font-size:7.05556px;font-family:sans-serif;-inkscape-font-specification:'sans-serif Bold';fill:none;fill-opacity:0.403562;stroke:#002a64;stroke-width:0.7;stroke-linecap:round;stroke-miterlimit:4;stroke-dasharray:2.1, 2.1;stroke-dashoffset:0;stroke-opacity:1"
       x="91.328972"
       y="92.785294"
       id="text24120"><tspan
         sodipodi:role="line"
         id="tspan24118"
         style="font-style:normal;font-variant:normal;font-weight:bold;font-stretch:normal;font-size:7.05556px;font-family:sans-serif;-inkscape-font-specification:'sans-serif Bold';fill:#ec102f;fill-opacity:1;stroke:none;stroke-width:0.7"
         x="91.328972"
         y="92.785294">Update</tspan><tspan
         sodipodi:role="line"
         style="font-style:normal;font-variant:normal;font-weight:bold;font-stretch:normal;font-size:7.05556px;font-family:sans-serif;-inkscape-font-specification:'sans-serif Bold';fill:#ec102f;fill-opacity:1;stroke:none;stroke-width:0.7"
         x="91.328972"
         y="101.60474"
         id="tspan30606">Front</tspan></text>
    <path
       style="fill:#b9b9b9;fill-opacity:1;stroke:#323232;stroke-width:0.705556;stroke-linecap:round;stroke-miterlimit:4;stroke-dasharray:none;stroke-opacity:1"
       id="path3072-7-1-9"
       sodipodi:type="arc"
       sodipodi:cx="46.184593"
       sodipodi:cy="103.04303"
       sodipodi:rx="4.2287188"
       sodipodi:ry="4.2287188"
       sodipodi:start="5.287667"
       sodipodi:end="5.2866721"
       sodipodi:open="true"
       sodipodi:arc-type="arc"
       d="m 48.485304,99.494961 a 4.2287188,4.2287188 0 0 1 1.24793,5.847899 4.2287188,4.2287188 0 0 1 -5.847586,1.24938 4.2287188,4.2287188 0 0 1 -1.250839,-5.84727 4.2287188,4.2287188 0 0 1 5.846964,-1.252296" />
    <path
       style="fill:#b9b9b9;fill-opacity:1;stroke:#323232;stroke-width:0.705556;stroke-linecap:round;stroke-miterlimit:4;stroke-dasharray:none;stroke-opacity:1"
       id="path3072-7-1-2"
       sodipodi:type="arc"
       sodipodi:cx="67.019814"
       sodipodi:cy="105.51189"
       sodipodi:rx="4.2287188"
       sodipodi:ry="4.2287188"
       sodipodi:start="5.287667"
       sodipodi:end="5.2866721"
       sodipodi:open="true"
       sodipodi:arc-type="arc"
       d="m 69.320524,101.96382 a 4.2287188,4.2287188 0 0 1 1.24793,5.84789 4.2287188,4.2287188 0 0 1 -5.847586,1.24939 4.2287188,4.2287188 0 0 1 -1.250839,-5.84728 4.2287188,4.2287188 0 0 1 5.846964,-1.25229" />
  </g>
</svg>
